ч<svg width="34" height="48" viewBox="0 0 34 48" fill="none" xmlns="http://www.w3.org/2000/svg">
<g style="mix-blend-mode:multiply">
<path d="M27.873 2.58178V0.306434C27.873 0.131407 27.687 -0.0326804 27.5339 0.00560662L1.19784 7.06683C0.404749 7.28015 0 7.76694 0 8.37406C0 8.37406 0.0273479 8.81163 0.153148 9.0687C0.339114 8.75146 0.683698 8.49986 1.19237 8.36312L26.5056 1.57538C26.615 1.54803 26.7517 1.58632 26.8611 1.68477L27.873 2.58178Z" fill="#13C296"/>
</g>
<g style="mix-blend-mode:multiply">
<path d="M17.076 9.50583L7.00106 12.2078C5.40941 12.6344 2.80042 11.8304 1.20331 10.4138C0.404749 9.7082 0 8.98075 0 8.37363V44.0462C0 44.6533 0.39381 45.3808 1.19784 46.0918C2.78949 47.503 5.39848 48.3125 6.99559 47.8859L33.452 40.7918C33.5832 40.7535 33.6653 40.6387 33.6653 40.4855V5.44193C33.6653 5.26691 33.4793 5.10282 33.3261 5.1411L17.0706 9.50036L17.076 9.50583Z" fill="#13C296"/>
</g>
<path d="M0.1751 9.10153C0.361066 9.52816 0.705649 9.97667 1.20338 10.4197C2.79503 11.8309 5.40402 12.6404 7.00114 12.2137L17.0761 9.51175L31.3626 5.67758L26.8612 1.69025C26.7518 1.5918 26.615 1.55351 26.5057 1.58086L1.19791 8.36314C0.689241 8.49988 0.339188 8.74601 0.158691 9.06872" fill="#FCFCFC"/>
<g style="mix-blend-mode:multiply">
<path d="M6.6346 12.2789C5.03201 12.5141 2.68009 11.7265 1.19784 10.4138C0.404749 9.70823 0 8.98078 0 8.37366V44.0463C0 44.6534 0.39381 45.3808 1.19784 46.0919C2.67462 47.4046 5.02654 48.1922 6.6346 47.957V12.2789Z" fill="#13C296"/>
</g>
</svg>
