<svg width="24" height="24" viewBox="0 0 24 24" fill="none" xmlns="http://www.w3.org/2000/svg">
<path d="M6.52625 5C6.58613 5.89 6.73581 6.76 6.97531 7.59L5.77782 8.79C5.36868 7.59 5.10922 6.32 5.01941 5H6.52625ZM16.3656 17.02C17.2139 17.26 18.082 17.41 18.9602 17.47V18.96C17.643 18.87 16.3756 18.61 15.1681 18.21L16.3656 17.02ZM7.48424 3H3.99156C3.44271 3 2.99365 3.45 2.99365 4C2.99365 13.39 10.5877 21 19.9581 21C20.507 21 20.956 20.55 20.956 20V16.51C20.956 15.96 20.507 15.51 19.9581 15.51C18.7207 15.51 17.5132 15.31 16.3956 14.94C16.2958 14.9 16.186 14.89 16.0862 14.89C15.8268 14.89 15.5773 14.99 15.3777 15.18L13.1823 17.38C10.3582 15.93 8.04307 13.62 6.60608 10.79L8.80148 8.59C9.0809 8.31 9.16073 7.92 9.05096 7.57C8.68174 6.45 8.48215 5.25 8.48215 4C8.48215 3.45 8.03309 3 7.48424 3Z" fill="inherit"/>
</svg>
