<svg width="24" height="24" viewBox="0 0 24 24" fill="white" xmlns="http://www.w3.org/2000/svg">
<path d="M21.6899 1.02014H19.2824C18.9819 1.02165 18.6919 1.1312 18.4654 1.32878C18.2389 1.52637 18.091 1.79881 18.0487 2.09639L17.3737 6.97139H16.0762V4.08389C16.0733 3.79865 15.9592 3.5258 15.7582 3.32339C15.5572 3.12099 15.2852 3.00501 14.9999 3.00014H12.0974C12.0653 2.73333 11.9388 2.48683 11.7407 2.30524C11.5426 2.12365 11.286 2.01897 11.0174 2.01014H7.7437C7.59365 2.01395 7.44588 2.04775 7.30909 2.10955C7.1723 2.17135 7.04927 2.2599 6.94723 2.36997C6.84518 2.48005 6.7662 2.60944 6.71493 2.75051C6.66366 2.89158 6.64114 3.04148 6.6487 3.19139V3.99014H3.77995C3.49578 3.98612 3.22155 4.09466 3.01711 4.29207C2.81267 4.48949 2.69461 4.75975 2.6887 5.04389V6.97514C2.5189 6.97864 2.35196 7.01942 2.19967 7.09459C2.04738 7.16976 1.91348 7.27749 1.80745 7.41014C1.69841 7.5493 1.62222 7.71128 1.58456 7.884C1.5469 8.05673 1.54874 8.23573 1.58995 8.40764C1.58834 8.42636 1.58834 8.44518 1.58995 8.46389L3.88495 15.5251C3.9509 15.772 4.09738 15.9899 4.30118 16.1441C4.50497 16.2983 4.75441 16.38 5.00995 16.3764H16.0649C16.4845 16.3759 16.8897 16.2238 17.206 15.9482C17.5223 15.6725 17.7283 15.2919 17.7862 14.8764L19.4999 2.52014H21.6862C21.8851 2.52014 22.0759 2.44112 22.2165 2.30047C22.3572 2.15982 22.4362 1.96905 22.4362 1.77014C22.4362 1.57123 22.3572 1.38046 22.2165 1.23981C22.0759 1.09916 21.8851 1.02014 21.6862 1.02014H21.6899ZM14.5649 6.95264H12.1124V4.50014H14.5762L14.5649 6.95264ZM8.1487 3.49889H10.6124V4.08014V6.94889H8.1487V3.49889ZM4.1887 5.47889H6.6487V6.95264H4.1887V5.47889ZM16.3012 14.6701C16.2939 14.7275 16.2658 14.7801 16.2222 14.8181C16.1787 14.8561 16.1227 14.8769 16.0649 14.8764H5.24995L3.1837 8.46014H17.1637L16.3012 14.6701Z"/>
<path d="M6.37485 18.1348C5.89494 18.1311 5.42474 18.27 5.02391 18.534C4.62307 18.7979 4.30965 19.1749 4.12342 19.6172C3.93719 20.0595 3.88653 20.5472 3.97788 21.0183C4.06922 21.4895 4.29845 21.9229 4.63649 22.2636C4.97452 22.6042 5.40613 22.8368 5.87655 22.9318C6.34697 23.0268 6.83502 22.98 7.27876 22.7972C7.72251 22.6144 8.10197 22.3039 8.36899 21.9051C8.63602 21.5064 8.77858 21.0373 8.7786 20.5573C8.78008 20.2404 8.71905 19.9262 8.599 19.6329C8.47896 19.3395 8.30225 19.0727 8.07899 18.8477C7.85574 18.6227 7.59031 18.4439 7.29789 18.3216C7.00548 18.1993 6.69181 18.1358 6.37485 18.1348ZM6.37485 21.4798C6.19164 21.4836 6.01148 21.4326 5.85732 21.3336C5.70317 21.2345 5.58202 21.0918 5.50932 20.9235C5.43661 20.7553 5.41565 20.5693 5.44909 20.3891C5.48254 20.209 5.56889 20.0429 5.69713 19.912C5.82536 19.7811 5.98968 19.6913 6.16912 19.6542C6.34856 19.617 6.53499 19.6342 6.70465 19.7034C6.87431 19.7726 7.01951 19.8908 7.12173 20.0429C7.22395 20.195 7.27856 20.3741 7.2786 20.5573C7.2806 20.7994 7.18662 21.0323 7.01724 21.2052C6.84786 21.3781 6.61687 21.4769 6.37485 21.4798Z" />
<path d="M15.5399 18.1348C15.06 18.1311 14.5898 18.27 14.1889 18.534C13.7881 18.7979 13.4747 19.1749 13.2885 19.6172C13.1022 20.0595 13.0516 20.5472 13.1429 21.0183C13.2343 21.4895 13.4635 21.9229 13.8015 22.2636C14.1396 22.6042 14.5712 22.8368 15.0416 22.9318C15.512 23.0268 16.0001 22.98 16.4438 22.7972C16.8876 22.6144 17.267 22.3039 17.534 21.9051C17.8011 21.5064 17.9436 21.0373 17.9436 20.5573C17.9456 19.9175 17.6936 19.303 17.2429 18.8488C16.7922 18.3946 16.1797 18.1378 15.5399 18.1348ZM15.5399 21.4798C15.3567 21.4836 15.1765 21.4326 15.0224 21.3336C14.8682 21.2345 14.7471 21.0918 14.6744 20.9235C14.6016 20.7553 14.5807 20.5693 14.6141 20.3891C14.6476 20.209 14.7339 20.0429 14.8622 19.912C14.9904 19.7811 15.1547 19.6913 15.3342 19.6542C15.5136 19.617 15.7 19.6342 15.8697 19.7034C16.0394 19.7726 16.1845 19.8908 16.2868 20.0429C16.389 20.195 16.4436 20.3741 16.4436 20.5573C16.4456 20.7994 16.3517 21.0323 16.1823 21.2052C16.0129 21.3781 15.7819 21.4769 15.5399 21.4798Z" />
</svg>
