<svg width="16" height="16" viewBox="0 0 16 16"  xmlns="http://www.w3.org/2000/svg">
<path d="M13.3184 2.66668V10.6667H5.32732V2.66668H13.3184ZM13.3184 1.33334H5.32732C4.59481 1.33334 3.99548 1.93334 3.99548 2.66668V10.6667C3.99548 11.4 4.59481 12 5.32732 12H13.3184C14.0509 12 14.6502 11.4 14.6502 10.6667V2.66668C14.6502 1.93334 14.0509 1.33334 13.3184 1.33334ZM8.304 9.33334L5.99325 7.00001L6.92554 6.06001L8.304 7.44668L11.7202 4.00001L12.6525 4.94001L8.304 9.33334ZM2.66363 4.00001H1.33179V13.3333C1.33179 14.0667 1.93112 14.6667 2.66363 14.6667H11.9865V13.3333H2.66363V4.00001Z" />
</svg>
