<svg width="8" height="14" viewBox="0 0 8 14" fill="none" xmlns="http://www.w3.org/2000/svg">
<path d="M7.43902 5.6H6.19918H5.75639V5.14839V3.74839V3.29677H6.19918H7.12906C7.3726 3.29677 7.57186 3.11613 7.57186 2.84516V0.451613C7.57186 0.203226 7.39474 0 7.12906 0H5.51285C3.76379 0 2.54609 1.26452 2.54609 3.13871V5.10323V5.55484H2.10329H0.597778C0.287819 5.55484 0 5.80323 0 6.16452V7.79032C0 8.10645 0.243539 8.4 0.597778 8.4H2.05901H2.50181V8.85161V13.3903C2.50181 13.7065 2.74535 14 3.09959 14H5.18075C5.31359 14 5.42429 13.9323 5.51285 13.8419C5.60141 13.7516 5.66783 13.5935 5.66783 13.4581V8.87419V8.42258H6.13276H7.12906C7.41688 8.42258 7.63828 8.24194 7.68256 7.97097V7.94839V7.92581L7.99252 6.36774C8.01466 6.20968 7.99252 6.02903 7.85968 5.84839C7.8154 5.73548 7.61614 5.62258 7.43902 5.6Z" fill="inherit"/>
</svg>
