<svg width="29" height="29" viewBox="0 0 29 29" fill="none" xmlns="http://www.w3.org/2000/svg">
<path d="M20.1996 3.78674C18.1696 3.78674 16.2213 4.72913 14.9496 6.21834C13.678 4.72913 11.7296 3.78674 9.69963 3.78674C6.10629 3.78674 3.28296 6.60228 3.28296 10.1857C3.28296 14.5835 7.24963 18.1669 13.258 23.6118L14.9496 25.1359L16.6413 23.6002C22.6496 18.1669 26.6163 14.5835 26.6163 10.1857C26.6163 6.60228 23.793 3.78674 20.1996 3.78674ZM15.0663 21.8783L14.9496 21.9946L14.833 21.8783C9.27963 16.8638 5.61629 13.548 5.61629 10.1857C5.61629 7.85879 7.36629 6.11363 9.69963 6.11363C11.4963 6.11363 13.2463 7.26544 13.8646 8.85935H16.0463C16.653 7.26544 18.403 6.11363 20.1996 6.11363C22.533 6.11363 24.283 7.85879 24.283 10.1857C24.283 13.548 20.6196 16.8638 15.0663 21.8783Z" fill="black"/>
</svg>
