<svg width="24" height="24" viewBox="0 0 24 24" fill="none" xmlns="http://www.w3.org/2000/svg">
<g clip-path="url(#clip0_20_4029)">
<path d="M6.97888 3.07401C7.86394 2.92321 8.77157 2.97296 9.63485 3.21958C10.4981 3.46621 11.2951 3.90343 11.9669 4.49901L12.0039 4.53201L12.0379 4.50201C12.6791 3.93931 13.4329 3.51981 14.2491 3.27149C15.0652 3.02318 15.9249 2.95177 16.7709 3.06201L17.0169 3.09801C18.0832 3.28212 19.0799 3.75117 19.9013 4.45548C20.7228 5.1598 21.3386 6.07316 21.6833 7.09885C22.0281 8.12454 22.0891 9.22437 21.8598 10.2819C21.6305 11.3394 21.1195 12.3152 20.3809 13.106L20.2009 13.291L20.1529 13.332L12.7029 20.711C12.531 20.8812 12.3032 20.9832 12.0618 20.9983C11.8203 21.0134 11.5816 20.9405 11.3899 20.793L11.2959 20.711L3.80288 13.289C3.0091 12.5167 2.44458 11.5397 2.17184 10.4663C1.8991 9.39287 1.92878 8.26491 2.2576 7.20733C2.58642 6.14974 3.20154 5.20381 4.03484 4.47428C4.86815 3.74476 5.88711 3.26011 6.97888 3.07401Z" fill="#E21E4D"/>
</g>
<defs>
<clipPath id="clip0_20_4029">
<rect width="24" height="24" fill="white"/>
</clipPath>
</defs>
</svg>
