<svg width="16" height="16" viewBox="0 0 16 16" fill="none" xmlns="http://www.w3.org/2000/svg">
<g clip-path="url(#clip0_13_40937)">
<path d="M3.87499 15.675C3.67499 15.675 3.47499 15.625 3.29999 15.5C2.97499 15.275 2.79999 14.875 2.87499 14.475L3.54999 10.225L0.624985 7.20001C0.349985 6.92501 0.249985 6.50001 0.374985 6.12501C0.499985 5.75001 0.799985 5.50001 1.17499 5.42501L5.24999 4.77501L7.07499 0.900012C7.24999 0.550012 7.59999 0.325012 7.97499 0.325012C8.37499 0.325012 8.69999 0.550012 8.87499 0.900012L10.75 4.75001L14.825 5.40001C15.2 5.45001 15.5 5.72501 15.625 6.10001C15.75 6.47501 15.65 6.90001 15.375 7.17501L12.425 10.2L13.125 14.475C13.2 14.875 13.025 15.275 12.7 15.5C12.4 15.725 12 15.75 11.65 15.575L7.99999 13.575L4.34999 15.575C4.19999 15.65 4.04999 15.675 3.87499 15.675ZM1.24999 6.60001L4.27499 9.70001C4.42499 9.85001 4.49999 10.075 4.44999 10.3L3.74999 14.625C3.72499 14.725 3.79999 14.775 3.82499 14.8C3.87499 14.85 3.92499 14.825 3.94999 14.8L7.69999 12.75C7.89999 12.65 8.12499 12.65 8.32499 12.75L12.075 14.775C12.1 14.775 12.125 14.8 12.2 14.775C12.225 14.75 12.275 14.7 12.275 14.6L11.575 10.25C11.55 10.025 11.6 9.82501 11.75 9.65001L14.75 6.55001C14.825 6.47501 14.8 6.40001 14.8 6.35001C14.8 6.32501 14.75 6.25001 14.7 6.25001L10.5 5.60001C10.275 5.57501 10.1 5.42501 9.99999 5.22501L8.12499 1.27501C8.09999 1.20001 8.04999 1.20001 7.99999 1.20001C7.97499 1.20001 7.92499 1.22501 7.87499 1.27501L5.99999 5.25001C5.89999 5.45001 5.72499 5.60001 5.49999 5.62501L1.32499 6.30001C1.24999 6.30001 1.22499 6.37501 1.22499 6.40001C1.19999 6.42501 1.17499 6.52501 1.24999 6.60001Z" fill="#FFBD5B"/>
</g>
<defs>
<clipPath id="clip0_13_40937">
<rect width="16" height="16" fill="white"/>
</clipPath>
</defs>
</svg>
