<svg width="14" height="10" viewBox="0 0 14 10" fill="none" xmlns="http://www.w3.org/2000/svg">
<path d="M12.4419 1.72211L13.3 0.782779C13.5484 0.528376 13.6161 0.332681 13.6387 0.234834C12.9613 0.587084 12.329 0.704501 11.9226 0.704501H11.7645L11.6742 0.626223C11.1323 0.215264 10.4548 0 9.73226 0C8.15161 0 6.90968 1.13503 6.90968 2.44618C6.90968 2.52446 6.90968 2.64188 6.93226 2.72016L7 3.11155L6.52581 3.09198C3.63548 3.0137 1.26452 0.861057 0.880645 0.489237C0.248387 1.46771 0.609677 2.40705 0.993548 2.99413L1.76129 4.09002L0.541936 3.50294C0.564516 4.32485 0.925806 4.97065 1.62581 5.44031L2.23548 5.8317L1.62581 6.04697C2.00968 7.04501 2.86774 7.45597 3.5 7.61252L4.33548 7.80822L3.54516 8.27789C2.28065 9.06067 0.7 9.00196 0 8.94325C1.42258 9.80431 3.11613 10 4.29032 10C5.17097 10 5.82581 9.92172 5.98387 9.86301C12.3065 8.57143 12.6 3.67906 12.6 2.70059V2.5636L12.7355 2.48532C13.5032 1.8591 13.8194 1.52642 14 1.33072C13.9323 1.35029 13.8419 1.38943 13.7516 1.409L12.4419 1.72211Z" fill="inherit"/>
</svg>
