<svg width="29" height="29" viewBox="0 0 29 29" fill="black" xmlns="http://www.w3.org/2000/svg">
<path d="M21.9498 7.48068H19.6165C19.6165 4.90947 17.5281 2.8269 14.9498 2.8269C12.3715 2.8269 10.2831 4.90947 10.2831 7.48068H7.94979C6.66646 7.48068 5.61646 8.52777 5.61646 9.80756V23.7689C5.61646 25.0487 6.66646 26.0958 7.94979 26.0958H21.9498C23.2331 26.0958 24.2831 25.0487 24.2831 23.7689V9.80756C24.2831 8.52777 23.2331 7.48068 21.9498 7.48068ZM14.9498 5.15379C16.2331 5.15379 17.2831 6.20089 17.2831 7.48068H12.6165C12.6165 6.20089 13.6665 5.15379 14.9498 5.15379ZM21.9498 23.7689H7.94979V9.80756H10.2831V12.1344C10.2831 12.7743 10.8081 13.2979 11.4498 13.2979C12.0915 13.2979 12.6165 12.7743 12.6165 12.1344V9.80756H17.2831V12.1344C17.2831 12.7743 17.8081 13.2979 18.4498 13.2979C19.0915 13.2979 19.6165 12.7743 19.6165 12.1344V9.80756H21.9498V23.7689Z" />
</svg>
