<svg width="13" height="12" viewBox="0 0 13 12" fill="none" xmlns="http://www.w3.org/2000/svg">
<path d="M11.9334 0H1.64722C1.16111 0 0.772217 0.387097 0.772217 0.870968V11.129C0.772217 11.5935 1.16111 12 1.64722 12H11.8945C12.3806 12 12.7695 11.6129 12.7695 11.129V0.851613C12.8084 0.387097 12.4195 0 11.9334 0ZM4.33058 10.2H2.56112V4.49032H4.33058V10.2ZM3.43613 3.69677C2.85279 3.69677 2.40556 3.23226 2.40556 2.67097C2.40556 2.10968 2.87223 1.64516 3.43613 1.64516C4.00002 1.64516 4.46669 2.10968 4.46669 2.67097C4.46669 3.23226 4.03891 3.69677 3.43613 3.69677ZM11.039 10.2H9.26951V7.43226C9.26951 6.77419 9.25006 5.90323 8.33617 5.90323C7.40282 5.90323 7.26671 6.63871 7.26671 7.37419V10.2H5.49725V4.49032H7.22782V5.28387H7.24727C7.50005 4.81935 8.06394 4.35484 8.93895 4.35484C10.7473 4.35484 11.0779 5.51613 11.0779 7.10323V10.2H11.039Z" fill="inherit"/>
</svg>
