<svg width="29" height="29" viewBox="0 0 29 29" fill="none" xmlns="http://www.w3.org/2000/svg">
<path d="M24.2831 26.1666H21.9498V23.8333C21.9498 22.905 21.581 22.0148 20.9247 21.3584C20.2683 20.702 19.378 20.3333 18.4498 20.3333H11.4498C10.5215 20.3333 9.63129 20.702 8.97492 21.3584C8.31854 22.0148 7.94979 22.905 7.94979 23.8333V26.1666H5.61646V23.8333C5.61646 22.2862 6.23104 20.8025 7.325 19.7085C8.41896 18.6145 9.90269 18 11.4498 18H18.4498C19.9969 18 21.4806 18.6145 22.5746 19.7085C23.6685 20.8025 24.2831 22.2862 24.2831 23.8333V26.1666ZM14.9498 15.6666C14.0305 15.6666 13.1203 15.4856 12.271 15.1338C11.4217 14.782 10.6501 14.2664 10 13.6164C9.35003 12.9664 8.83441 12.1947 8.48263 11.3454C8.13085 10.4961 7.94979 9.58588 7.94979 8.66663C7.94979 7.74737 8.13085 6.83712 8.48263 5.98784C8.83441 5.13856 9.35003 4.36689 10 3.71688C10.6501 3.06687 11.4217 2.55125 12.271 2.19947C13.1203 1.84769 14.0305 1.66663 14.9498 1.66663C16.8063 1.66663 18.5868 2.40412 19.8995 3.71688C21.2123 5.02963 21.9498 6.81011 21.9498 8.66663C21.9498 10.5231 21.2123 12.3036 19.8995 13.6164C18.5868 14.9291 16.8063 15.6666 14.9498 15.6666ZM14.9498 13.3333C16.1875 13.3333 17.3745 12.8416 18.2496 11.9665C19.1248 11.0913 19.6165 9.9043 19.6165 8.66663C19.6165 7.42895 19.1248 6.24196 18.2496 5.36679C17.3745 4.49162 16.1875 3.99996 14.9498 3.99996C13.7121 3.99996 12.5251 4.49162 11.65 5.36679C10.7748 6.24196 10.2831 7.42895 10.2831 8.66663C10.2831 9.9043 10.7748 11.0913 11.65 11.9665C12.5251 12.8416 13.7121 13.3333 14.9498 13.3333Z" fill="black"/>
</svg>
