<svg width="14" height="10" viewBox="0 0 14 10" fill="none" xmlns="http://www.w3.org/2000/svg">
<path d="M13.7065 1.56682C13.5484 0.9447 13.0742 0.460829 12.4645 0.299539C11.3806 5.49352e-08 7 0 7 0C7 0 2.61935 5.49352e-08 1.53548 0.299539C0.925806 0.460829 0.451613 0.9447 0.293548 1.56682C0 2.69585 0 5 0 5C0 5 0 7.32719 0.293548 8.43318C0.451613 9.0553 0.925806 9.53917 1.53548 9.70046C2.61935 10 7 10 7 10C7 10 11.3806 10 12.4645 9.70046C13.0742 9.53917 13.5484 9.0553 13.7065 8.43318C14 7.32719 14 5 14 5C14 5 14 2.69585 13.7065 1.56682ZM5.6 7.14286V2.85714L9.23548 5L5.6 7.14286Z" fill="inherit"/>
</svg>
